<?xml version="1.0" encoding="utf-8"?>
<!-- Generator: Adobe Illustrator 24.0.3, SVG Export Plug-In . SVG Version: 6.00 Build 0)  -->
<svg version="1.1" id="Capa_1" xmlns="http://www.w3.org/2000/svg" xmlns:xlink="http://www.w3.org/1999/xlink" x="0px" y="0px"
	 width="200px" height="73.363px" viewBox="0 0 200 73.363" style="enable-background:new 0 0 200 73.363;" xml:space="preserve">
<style type="text/css">
	.st0{fill:#FF0A00;}
	.st1{fill:#E30613;}
	.st2{fill:#FFFFFF;}
</style>
<g>
	<polygon class="st0" points="7.202,0 7.202,10.262 12.321,10.262 12.321,5.143 17.464,5.143 17.464,0 	"/>
	<polygon class="st0" points="7.202,58.676 7.202,48.414 12.321,48.414 12.321,53.534 17.464,53.534 17.464,58.676 	"/>
	<rect x="7.202" y="15.335" class="st0" width="5.143" height="27.983"/>
	<polygon class="st0" points="192.775,0 192.775,10.262 187.656,10.262 187.656,5.143 182.513,5.143 182.513,0 	"/>
	<polygon class="st0" points="192.775,58.676 192.775,48.414 187.656,48.414 187.656,53.534 182.513,53.534 182.513,58.676 	"/>
	<rect x="22.606" y="53.534" class="st0" width="154.764" height="5.143"/>
	<rect x="22.143" class="st0" width="154.764" height="5.143"/>
	<rect x="187.656" y="15.335" class="st0" width="5.143" height="27.983"/>
	<path d="M169.541,33.635l-4.471-1.807l-2.525,1.066l-1.807,4.471l-2.502-1.019l1.807-4.471l-1.066-2.525l-4.471-1.807l1.019-2.502
		l4.471,1.807l2.525-1.066l1.807-4.471l2.502,1.019l-1.807,4.471l1.066,2.525l4.471,1.807L169.541,33.635z M162.522,14.802
		c-8.038,0-14.779,6.532-14.779,14.524s6.741,14.524,14.779,14.524c8.154,0,14.779-6.532,14.779-14.524
		S170.676,14.802,162.522,14.802"/>
	<path d="M70.071,42.531c-0.185,0.463-0.672,0.788-1.181,0.788h-5.374c-0.51,0-0.996-0.324-1.181-0.788L51.678,16.146
		c-0.139-0.347,0.116-0.788,0.533-0.788h6.092c0.51,0,0.973,0.324,1.135,0.788l6.486,17.327c0.069,0.255,0.44,0.255,0.51,0
		l6.532-17.327c0.185-0.463,0.649-0.788,1.158-0.788h6.092c0.44,0,0.672,0.44,0.533,0.788L70.071,42.531z"/>
	<path d="M83.229,16.215c0-0.463,0.394-0.857,0.857-0.857h5.444c0.463,0,0.857,0.394,0.857,0.857v26.246
		c0,0.463-0.394,0.857-0.857,0.857h-5.444c-0.463,0-0.857-0.394-0.857-0.857V16.215z"/>
	<path d="M95.576,43.318c-0.463,0-0.857-0.394-0.857-0.857V16.215c0-0.463,0.394-0.857,0.857-0.857h19.76
		c0.463,0,0.857,0.394,0.857,0.857v5.235c0,0.463-0.394,0.857-0.857,0.857h-12.741c-0.394,0-0.718,0.324-0.718,0.718v2.571
		c0,0.394,0.324,0.718,0.718,0.718h10.193c0.463,0,0.857,0.394,0.857,0.857v4.772c0,0.463-0.394,0.857-0.857,0.857h-10.193
		c-0.394,0-0.718,0.324-0.718,0.718v2.154c0,0.394,0.324,0.718,0.718,0.718h12.741c0.463,0,0.857,0.394,0.857,0.857v5.189
		c0,0.463-0.394,0.857-0.857,0.857L95.576,43.318L95.576,43.318z"/>
	<path d="M132.106,22.308h-4.563c-0.394,0-0.718,0.324-0.718,0.718v12.648c0,0.394,0.324,0.718,0.718,0.718h4.563
		c4.262,0,6.532-2.872,6.532-7.065S136.392,22.308,132.106,22.308 M120.524,43.318c-0.463,0-0.857-0.394-0.857-0.857V16.215
		c0-0.463,0.394-0.857,0.857-0.857h12.115c8.756,0,13.227,6.393,13.227,13.992c0,7.644-4.494,13.992-13.227,13.992L120.524,43.318
		L120.524,43.318z"/>
	<path d="M29.857,29.327c0,4.239,3.405,7.598,7.598,7.598c4.309,0,7.598-3.382,7.598-7.598s-3.289-7.598-7.598-7.598
		C33.262,21.729,29.857,25.111,29.857,29.327 M22.606,29.327c0-7.992,6.787-14.524,14.849-14.524
		c8.177,0,14.849,6.532,14.849,14.524s-6.671,14.524-14.849,14.524C29.394,43.851,22.606,37.342,22.606,29.327"/>
</g>
<path d="M17.95,72.089c-0.162,0-0.301-0.139-0.301-0.301v-8.872c0-0.162,0.139-0.301,0.301-0.301h6.44
	c0.162,0,0.301,0.139,0.301,0.301v1.761c0,0.162-0.139,0.301-0.301,0.301h-4.077c-0.139,0-0.232,0.116-0.232,0.232v1.181
	c0,0.139,0.116,0.232,0.232,0.232h3.336c0.162,0,0.301,0.139,0.301,0.301v1.622c0,0.162-0.139,0.301-0.301,0.301h-3.336
	c-0.139,0-0.232,0.116-0.232,0.232v2.71c0,0.162-0.139,0.301-0.301,0.301H17.95L17.95,72.089z"/>
<path d="M28.421,72.089c-0.162,0-0.301-0.139-0.301-0.301v-8.872c0-0.162,0.139-0.301,0.301-0.301h6.671
	c0.162,0,0.301,0.139,0.301,0.301v1.761c0,0.162-0.139,0.301-0.301,0.301h-4.309c-0.139,0-0.232,0.116-0.232,0.232v0.88
	c0,0.139,0.116,0.232,0.232,0.232h3.452c0.162,0,0.301,0.139,0.301,0.301v1.622c0,0.162-0.139,0.301-0.301,0.301h-3.452
	c-0.139,0-0.232,0.116-0.232,0.232v0.718c0,0.139,0.116,0.232,0.232,0.232h4.309c0.162,0,0.301,0.139,0.301,0.301v1.761
	c0,0.162-0.139,0.301-0.301,0.301L28.421,72.089L28.421,72.089z"/>
<path d="M43.478,64.838h-1.83c-0.139,0-0.232,0.116-0.232,0.232v2.039c0,0.139,0.116,0.232,0.232,0.232h1.83
	c0.973,0,1.344-0.602,1.344-1.251C44.798,65.371,44.451,64.838,43.478,64.838 M38.984,62.916c0-0.162,0.139-0.301,0.301-0.301h4.332
	c2.432,0,3.544,1.575,3.544,3.452c0,1.251-0.51,2.409-1.645,3.035c-0.116,0.069-0.139,0.208-0.069,0.324l1.737,2.409
	c0.069,0.116,0,0.232-0.116,0.232h-2.316c-0.185,0-0.347-0.093-0.463-0.232l-1.483-2.085c-0.093-0.116-0.232-0.185-0.394-0.185
	h-0.741c-0.139,0-0.232,0.116-0.232,0.232v1.992c0,0.162-0.139,0.301-0.301,0.301h-1.83c-0.162,0-0.301-0.139-0.301-0.301v-8.872
	H38.984z"/>
<path d="M55.176,64.838h-1.83c-0.139,0-0.232,0.116-0.232,0.232v2.039c0,0.139,0.116,0.232,0.232,0.232h1.83
	c0.973,0,1.344-0.602,1.344-1.251C56.52,65.371,56.149,64.838,55.176,64.838 M50.705,62.916c0-0.162,0.139-0.301,0.301-0.301h4.332
	c2.432,0,3.544,1.575,3.544,3.452c0,1.251-0.51,2.409-1.645,3.035c-0.116,0.069-0.139,0.208-0.069,0.324l1.737,2.409
	c0.069,0.116,0,0.232-0.116,0.232h-2.316c-0.185,0-0.347-0.093-0.463-0.232l-1.483-2.085c-0.093-0.116-0.232-0.185-0.394-0.185
	h-0.741c-0.139,0-0.232,0.116-0.232,0.232v1.992c0,0.162-0.139,0.301-0.301,0.301h-1.876c-0.162,0-0.301-0.139-0.301-0.301v-8.872
	H50.705z"/>
<path d="M62.681,72.089c-0.162,0-0.301-0.139-0.301-0.301v-8.872c0-0.162,0.139-0.301,0.301-0.301h6.671
	c0.162,0,0.301,0.139,0.301,0.301v1.761c0,0.162-0.139,0.301-0.301,0.301h-4.309c-0.139,0-0.232,0.116-0.232,0.232v0.88
	c0,0.139,0.116,0.232,0.232,0.232h3.452c0.162,0,0.301,0.139,0.301,0.301v1.622c0,0.162-0.139,0.301-0.301,0.301h-3.452
	c-0.139,0-0.232,0.116-0.232,0.232v0.718c0,0.139,0.116,0.232,0.232,0.232h4.309c0.162,0,0.301,0.139,0.301,0.301v1.761
	c0,0.162-0.139,0.301-0.301,0.301L62.681,72.089L62.681,72.089z"/>
<path d="M72.967,64.977c-0.162,0-0.301-0.139-0.301-0.301v-1.761c0-0.162,0.139-0.301,0.301-0.301h7.737
	c0.162,0,0.301,0.139,0.301,0.301v1.761c0,0.162-0.139,0.301-0.301,0.301h-2.409c-0.139,0-0.232,0.116-0.232,0.232v6.579
	c0,0.162-0.139,0.301-0.301,0.301h-1.853c-0.162,0-0.301-0.139-0.301-0.301v-6.579c0-0.139-0.116-0.232-0.232-0.232H72.967z"/>
<path d="M84.572,72.089c-0.162,0-0.301-0.139-0.301-0.301v-8.872c0-0.162,0.139-0.301,0.301-0.301h6.671
	c0.162,0,0.301,0.139,0.301,0.301v1.761c0,0.162-0.139,0.301-0.301,0.301h-4.309c-0.139,0-0.232,0.116-0.232,0.232v0.88
	c0,0.139,0.116,0.232,0.232,0.232h3.452c0.162,0,0.301,0.139,0.301,0.301v1.622c0,0.162-0.139,0.301-0.301,0.301h-3.452
	c-0.139,0-0.232,0.116-0.232,0.232v0.718c0,0.139,0.116,0.232,0.232,0.232h4.309c0.162,0,0.301,0.139,0.301,0.301v1.761
	c0,0.162-0.139,0.301-0.301,0.301L84.572,72.089L84.572,72.089z"/>
<path d="M99.629,64.838h-1.83c-0.139,0-0.232,0.116-0.232,0.232v2.039c0,0.139,0.116,0.232,0.232,0.232h1.83
	c0.973,0,1.344-0.602,1.344-1.251C100.973,65.371,100.602,64.838,99.629,64.838 M95.135,62.916c0-0.162,0.139-0.301,0.301-0.301
	h4.332c2.432,0,3.544,1.575,3.544,3.452c0,1.251-0.51,2.409-1.645,3.035c-0.116,0.069-0.139,0.208-0.069,0.324l1.737,2.409
	c0.069,0.116,0,0.232-0.116,0.232h-2.316c-0.185,0-0.347-0.093-0.463-0.232l-1.483-2.085c-0.093-0.116-0.232-0.185-0.394-0.185
	h-0.741c-0.139,0-0.232,0.116-0.232,0.232v1.992c0,0.162-0.139,0.301-0.301,0.301h-1.83c-0.162,0-0.301-0.139-0.301-0.301v-8.872
	H95.135z"/>
<path d="M106.857,62.916c0-0.162,0.139-0.301,0.301-0.301h1.853c0.162,0,0.301,0.139,0.301,0.301v8.872
	c0,0.162-0.139,0.301-0.301,0.301h-1.853c-0.162,0-0.301-0.139-0.301-0.301V62.916z"/>
<path d="M118.254,68.498c0.116,0,0.185-0.116,0.162-0.232l-0.857-2.316c-0.023-0.093-0.139-0.093-0.162,0l-0.88,2.316
	c-0.046,0.116,0.046,0.232,0.162,0.232H118.254z M116.146,62.892c0.069-0.162,0.232-0.255,0.394-0.255h1.807
	c0.162,0,0.347,0.116,0.394,0.255l3.591,8.918c0.046,0.116-0.046,0.255-0.185,0.255h-2.062c-0.162,0-0.324-0.116-0.394-0.255
	l-0.347-0.88c-0.046-0.139-0.185-0.232-0.324-0.232h-3.243c-0.139,0-0.278,0.093-0.324,0.232l-0.347,0.88
	c-0.069,0.162-0.208,0.255-0.394,0.255h-2.062c-0.139,0-0.232-0.139-0.185-0.255L116.146,62.892z"/>
<path d="M124.786,69.587c-0.023-0.162,0.139-0.347,0.324-0.347h1.645c0.278,0,0.347,0.069,0.486,0.324
	c0.162,0.324,0.672,0.602,1.506,0.602c0.903,0,1.205-0.301,1.205-0.579c0-0.394-0.463-0.649-1.622-1.019
	c-1.506-0.486-3.475-1.228-3.475-3.174c0-1.807,1.529-2.942,3.706-2.942c2.201,0,3.753,1.158,3.869,2.849
	c0.023,0.162-0.139,0.347-0.324,0.347h-1.691c-0.232,0-0.347-0.116-0.417-0.324c-0.139-0.394-0.602-0.764-1.413-0.764
	c-0.834,0-1.158,0.324-1.158,0.649c0,0.371,0.44,0.579,1.575,0.95c1.297,0.463,3.544,1.228,3.544,3.313
	c0,1.853-1.598,2.803-3.753,2.803C126.64,72.274,124.949,71.324,124.786,69.587"/>
<g>
	<rect x="140.029" y="62.452" class="st1" width="42.809" height="10.911"/>
	<polygon class="st2" points="150.754,63.634 148.901,71.996 153.071,71.996 153.696,67.41 155.526,71.996 158.051,71.996 
		159.951,67.386 160.576,71.996 164.699,71.996 162.684,63.634 158.445,63.634 156.777,67.989 155.202,63.634 	"/>
	<polygon class="st2" points="163.703,63.634 172.645,63.634 172.645,66.39 170.328,66.39 170.328,71.996 166.02,71.996 
		166.02,66.39 163.703,66.39 	"/>
	<polygon class="st2" points="143.944,68.915 140.979,68.915 140.979,66.854 141.326,66.854 141.326,68.522 142.253,68.522 
		142.253,66.97 142.6,66.97 142.6,68.522 143.596,68.522 143.596,66.784 143.944,66.784 	"/>
	<path class="st2" d="M172.599,71.324c1.042,0.324,2.479,0.579,2.479,0.579c0.88,0.139,1.066,0.185,2.479,0.162
		c1.39-0.023,2.664-0.579,2.664-0.579c1.367-0.556,1.668-1.506,1.668-1.506c0.579-1.089-0.116-2.015-0.116-2.015
		c-0.486-0.718-1.784-1.066-1.784-1.066c-0.347-0.185-2.293-0.394-2.293-0.394c-0.625-0.046-0.44-0.394-0.44-0.394
		c0.023-0.417,1.228-0.347,1.32-0.347c0.602,0,1.969,0.625,1.969,0.625l1.181-2.201c-1.112-0.602-3.127-0.695-3.127-0.695
		c-1.691-0.185-3.289,0.44-3.289,0.44c-2.409,0.764-2.27,2.594-2.27,2.594c-0.023,0.533,0.278,1.228,0.927,1.622
		c0.973,0.579,2.409,0.718,2.479,0.718c0.718,0,1.089,0.162,1.089,0.162c0.556,0.162,0.139,0.579,0.139,0.579
		c-0.301,0.162-0.857,0.185-0.857,0.185c-1.413,0.093-2.942-0.88-2.942-0.88L172.599,71.324z"/>
	<path class="st2" d="M142.299,71.533v-0.811c0-0.162-0.023-0.301-0.046-0.394c-0.046-0.093-0.093-0.162-0.185-0.232
		c-0.093-0.046-0.162-0.069-0.278-0.069c-0.139,0-0.255,0.046-0.347,0.139c-0.093,0.093-0.139,0.255-0.139,0.463v0.903H142.299z
		 M143.944,71.927h-2.965v-1.274c0-0.255,0.023-0.44,0.093-0.579c0.046-0.139,0.139-0.232,0.278-0.324
		c0.139-0.069,0.278-0.116,0.44-0.116c0.208,0,0.394,0.069,0.533,0.185c0.139,0.139,0.232,0.324,0.278,0.602
		c0.046-0.093,0.093-0.185,0.139-0.232c0.116-0.116,0.232-0.208,0.394-0.301l0.811-0.486v0.463l-0.625,0.371
		c-0.185,0.116-0.324,0.208-0.417,0.278c-0.093,0.069-0.162,0.139-0.208,0.185c-0.046,0.046-0.07,0.116-0.07,0.162
		s-0.023,0.116-0.023,0.208v0.44h1.32v0.417H143.944z"/>
	<path class="st2" d="M143.596,65.742v-0.602c0-0.185-0.023-0.324-0.046-0.44c-0.046-0.116-0.093-0.185-0.162-0.255
		c-0.093-0.093-0.208-0.162-0.371-0.208c-0.162-0.046-0.347-0.069-0.579-0.069c-0.301,0-0.556,0.046-0.718,0.139
		c-0.162,0.093-0.278,0.208-0.347,0.347c-0.046,0.093-0.069,0.255-0.069,0.486v0.602L143.596,65.742L143.596,65.742z
		 M143.944,66.112h-2.965v-0.973c0-0.232,0.023-0.394,0.046-0.51c0.046-0.162,0.116-0.301,0.208-0.417
		c0.139-0.139,0.301-0.255,0.51-0.324c0.208-0.069,0.44-0.116,0.695-0.116c0.232,0,0.417,0.023,0.602,0.069
		c0.185,0.046,0.324,0.116,0.44,0.185c0.116,0.069,0.208,0.162,0.278,0.255s0.116,0.208,0.139,0.347
		c0.023,0.139,0.046,0.278,0.046,0.463L143.944,66.112L143.944,66.112z"/>
</g>
</svg>
